Coordinates
version=1
nRows=4
nColumns=114
inDegrees=yes

Units are S.I. units (second, meters, Newtons, ...)
If the header above contains a line with 'inDegrees', this indicates whether rotational values are in degrees (yes) or radians (no).

endheader 
time	pelvis_tilt	pelvis_list	pelvis_rotation	pelvis_tx	pelvis_ty	pelvis_tz	hip_flexion_l	hip_adduction_l	hip_rotation_l	hip_flexion_r	hip_adduction_r	hip_rotation_r	knee_angle_l	knee_angle_r	ankle_angle_l	ankle_angle_r	subtalar_angle_l	subtalar_angle_r	mtp_angle_l	mtp_angle_r	lumbar_extension	lumbar_bending	lumbar_rotation	arm_flex_l	arm_add_l	arm_rot_l	arm_flex_r	arm_add_r	arm_rot_r	elbow_flex_l	elbow_flex_r	pro_sup_l	pro_sup_r	addbrev_l/activation	addlong_l/activation	addmagDist_l/activation	addmagIsch_l/activation	addmagMid_l/activation	addmagProx_l/activation	bflh_l/activation	bfsh_l/activation	edl_l/activation	ehl_l/activation	fdl_l/activation	fhl_l/activation	gaslat_l/activation	gasmed_l/activation	glmax1_l/activation	glmax2_l/activation	glmax3_l/activation	glmed1_l/activation	glmed2_l/activation	glmed3_l/activation	glmin1_l/activation	glmin2_l/activation	glmin3_l/activation	grac_l/activation	iliacus_l/activation	perbrev_l/activation	perlong_l/activation	piri_l/activation	psoas_l/activation	recfem_l/activation	sart_l/activation	semimem_l/activation	semiten_l/activation	soleus_l/activation	tfl_l/activation	tibant_l/activation	tibpost_l/activation	vasint_l/activation	vaslat_l/activation	vasmed_l/activation	addbrev_r/activation	addlong_r/activation	addmagDist_r/activation	addmagIsch_r/activation	addmagMid_r/activation	addmagProx_r/activation	bflh_r/activation	bfsh_r/activation	edl_r/activation	ehl_r/activation	fdl_r/activation	fhl_r/activation	gaslat_r/activation	gasmed_r/activation	glmax1_r/activation	glmax2_r/activation	glmax3_r/activation	glmed1_r/activation	glmed2_r/activation	glmed3_r/activation	glmin1_r/activation	glmin2_r/activation	glmin3_r/activation	grac_r/activation	iliacus_r/activation	perbrev_r/activation	perlong_r/activation	piri_r/activation	psoas_r/activation	recfem_r/activation	sart_r/activation	semimem_r/activation	semiten_r/activation	soleus_r/activation	tfl_r/activation	tibant_r/activation	tibpost_r/activation	vasint_r/activation	vaslat_r/activation	vasmed_r/activation	
          4.88000000	         -0.31974023	        -10.64119485	         32.05402523	         -2.02499713	          1.10522440	         -0.10700217	         28.78175313	         -2.82498711	         10.69082940	          1.02858564	          4.30019450	          3.34663026	         19.67517517	         33.87229528	         -8.39805048	         -6.15704766	         -2.51017321	          5.11413386	         -2.45094069	         -0.20853251	         -6.86916082	        -17.41507638	         15.16433034	         34.05434584	          2.51887784	       -338.00188332	        102.24805493	        -30.53504712	         43.14093266	        106.80421477	          1.63025169	         78.80302850	        107.60526304	          0.02640656	          0.32579997	          0.01006940	          0.01004135	          0.01019120	          0.21355848	          0.01707205	          0.04977296	          0.07959671	          0.03824838	          0.01469349	          0.01196182	          0.01019452	          0.01615493	          0.01231939	          0.01653617	          0.01013375	          0.01048800	          0.01007105	          0.01636216	          0.01012593	          0.01309268	          0.01455815	          0.02678376	          0.32177030	          0.04368465	          0.06109991	          0.28481289	          0.96770701	          0.50018403	          0.45742977	          0.03551912	          0.02479507	          0.01595287	          0.10104036	          0.14028324	          0.01183842	          0.19242724	          0.07082116	          0.04233074	          0.08374530	          0.13126826	          0.05659441	          0.07488093	          0.05869509	          0.05273420	          0.02693498	          0.05693675	          0.03769000	          0.02352575	          0.01597407	          0.01612900	          0.03287955	          0.02506382	          0.01155119	          0.01079664	          0.03584988	          0.05935310	          0.01077547	          0.01086226	          0.03866517	          0.01165829	          0.01168596	          0.03916971	          0.04652212	          0.01745824	          0.02066482	          0.01218480	          0.04157933	          0.01903661	          0.02852415	          0.09704474	          0.15646320	          0.01109630	          0.01474681	          0.09447723	          0.01939923	          0.01998587	          0.03020706	          0.02187996	
          4.89000000	         -0.22023043	        -11.32313532	         34.68692673	         -2.02598429	          1.10782161	         -0.10916052	         29.65861710	         -2.96477266	         10.69399254	          1.95374265	          4.77563530	          4.27067936	         19.91691554	         33.96996392	         -8.22877777	         -6.77896785	         -2.84926704	          8.59816503	         -2.14581084	         -0.16997483	         -8.96518586	        -17.20716678	         17.56915280	         33.45956004	          4.77201065	       -340.05897433	         94.14225616	        -39.77768499	         30.75795107	        108.50315826	          6.60450627	         80.33405883	        107.35197377	          0.16823697	          0.35866108	          0.01008106	          0.01004473	          0.01034104	          0.32886044	          0.01423750	          0.04152619	          0.06637077	          0.03264628	          0.01527563	          0.01281545	          0.01024708	          0.01347906	          0.01057414	          0.01383844	          0.01016782	          0.01002913	          0.01006686	          0.01365187	          0.01012524	          0.01097031	          0.01219727	          0.03593958	          0.26825101	          0.03651931	          0.05094527	          0.23741411	          0.94027101	          0.45358019	          0.45220752	          0.02960083	          0.02066861	          0.01331786	          0.08423493	          0.11855916	          0.01352063	          0.19803188	          0.05902822	          0.03530115	          0.07029992	          0.10953277	          0.07991744	          0.06279007	          0.06706635	          0.04702673	          0.19409825	          0.04748439	          0.04641595	          0.02946363	          0.01647251	          0.01505304	          0.02740993	          0.02088975	          0.03088440	          0.03524183	          0.16895174	          0.04948183	          0.01064606	          0.01114991	          0.03226678	          0.01109904	          0.01143198	          0.03272975	          0.03881939	          0.01498268	          0.01735903	          0.01322483	          0.03471435	          0.01604814	          0.02382841	          0.08104009	          0.13046807	          0.01020862	          0.01243455	          0.08994988	          0.01671891	          0.02252995	          0.04640106	          0.02696218	
          4.90000000	         -0.23595132	        -11.92593097	         37.19636599	         -2.02632460	          1.10977079	         -0.11096997	         30.64512021	         -2.98771884	         10.67138676	          2.79809773	          5.10164011	          5.33459520	         20.05964887	         33.85830093	         -8.11802737	         -7.21153803	         -3.04336084	         12.05533554	         -1.87124474	         -0.13618253	        -10.92157980	        -17.36316044	         20.96096857	         33.98211781	          7.01651245	       -338.54266938	         81.23168941	        -51.04422670	         12.93628186	        111.55818330	         15.00828393	         80.74255055	        107.74913432	          0.14067272	          0.29893308	          0.01009253	          0.01004703	          0.01043278	          0.32218140	          0.01188731	          0.03465748	          0.05539409	          0.02805410	          0.01680162	          0.01440260	          0.01026349	          0.01128207	          0.01070081	          0.01184075	          0.01120666	          0.01002949	          0.01005430	          0.01140444	          0.01009933	          0.01013348	          0.01032496	          0.06459025	          0.22360862	          0.03049514	          0.04248928	          0.19789178	          0.91263361	          0.37808046	          0.38008342	          0.02466926	          0.01723119	          0.01117461	          0.07020671	          0.11651984	          0.01670182	          0.17589420	          0.04919661	          0.02943273	          0.05882536	          0.09138118	          0.06698692	          0.05253843	          0.05642389	          0.03958504	          0.20212491	          0.03960483	          0.07080568	          0.02661371	          0.01496352	          0.01319155	          0.02285252	          0.01741658	          0.02777859	          0.05660079	          0.14101376	          0.04126109	          0.01035969	          0.01046526	          0.02694186	          0.01066656	          0.01076867	          0.02733542	          0.03240004	          0.01501712	          0.01573193	          0.01146652	          0.02898512	          0.09687620	          0.01991094	          0.06766103	          0.10881412	          0.01020758	          0.01057621	          0.08427435	          0.01419381	          0.03645446	          0.06838022	          0.03468618	
          4.91000000	         -0.48338728	        -12.48923507	         39.43494326	         -2.02564092	          1.11086490	         -0.11233630	         31.80928407	         -2.90213219	         10.56551375	          3.60364918	          5.25243645	          6.60066567	         20.13695651	         33.42755567	         -7.96237889	         -7.48661841	         -3.06427927	         15.26928105	         -1.62568933	         -0.11941435	        -12.59877542	        -17.88664909	         25.47981056	         35.79095588	          8.61948658	       -332.26267299	         58.70989372	        -62.94875774	         -7.81898959	        115.20181625	         27.75010745	         81.15799485	        108.13561567	          0.33950040	          0.24918625	          0.01012662	          0.01005529	          0.07712217	          0.43161933	          0.01008345	          0.02894011	          0.04618804	          0.02460556	          0.01645314	          0.01437462	          0.01067493	          0.01024262	          0.01027709	          0.01030240	          0.21490184	          0.01002692	          0.01004795	          0.01006946	          0.01009458	          0.01013268	          0.01016614	          0.05487280	          0.18641745	          0.02549063	          0.03543186	          0.16492018	          0.94544764	          0.36802320	          0.31705550	          0.02056016	          0.01436872	          0.01180420	          0.06062053	          0.10740601	          0.04443681	          0.14671125	          0.04100122	          0.02453668	          0.04911478	          0.07620255	          0.05590023	          0.04384699	          0.04713417	          0.03311237	          0.16846024	          0.03303614	          0.06968365	          0.03271656	          0.01359200	          0.01161159	          0.01905289	          0.01451742	          0.02353344	          0.04737634	          0.11755501	          0.03443376	          0.01080141	          0.01456425	          0.02252711	          0.01033324	          0.01039293	          0.02281945	          0.02705538	          0.01471368	          0.01424661	          0.01038143	          0.02420717	          0.09520498	          0.01664612	          0.05642956	          0.09073526	          0.01011486	          0.10779046	          0.07535948	          0.01212432	          0.03063525	          0.05704844	          0.02906718	
